<?xml version="1.0" standalone="no"?><!DOCTYPE svg PUBLIC "-//W3C//DTD SVG 1.1//EN" "http://www.w3.org/Graphics/SVG/1.1/DTD/svg11.dtd"><svg width="32" height="32" viewBox="0 0 32 32" version="1.1" xmlns="http://www.w3.org/2000/svg" xmlns:xlink="http://www.w3.org/1999/xlink"><defs><style type="text/css"><![CDATA[
@font-face { font-family: ifont; src: url("//at.alicdn.com/t/font_1442373896_4754455.eot?#iefix") format("embedded-opentype"), url("//at.alicdn.com/t/font_1442373896_4754455.woff") format("woff"), url("//at.alicdn.com/t/font_1442373896_4754455.ttf") format("truetype"), url("//at.alicdn.com/t/font_1442373896_4754455.svg#ifont") format("svg"); }

]]></style></defs><g class="transform-group"><g transform="scale(0.03125, 0.03125)"><path d="M168.737052 756.036016l-78.945003 0c-14.516622 0-26.313296 11.777231-26.313296 26.309202 0 14.536065 11.796674 26.318412 26.313296 26.318412l78.94398 0c14.517645 0 26.314319-11.784394 26.314319-26.318412C195.051371 767.813247 183.254697 756.036016 168.737052 756.036016L168.737052 756.036016zM931.84309 756.036016 352.935238 756.036016c-14.521738 0-26.318412 11.777231-26.318412 26.309202 0 14.536065 11.797697 26.318412 26.318412 26.318412l578.907852 0c14.516622 0 26.313296-11.784394 26.313296-26.318412C958.157409 767.813247 946.359712 756.036016 931.84309 756.036016L931.84309 756.036016zM168.737052 485.683634l-78.945003 0c-14.516622 0-26.313296 11.783371-26.313296 26.317389 0 14.531971 11.796674 26.313296 26.313296 26.313296l78.94398 0c14.517645 0 26.314319-11.783371 26.314319-26.313296C195.051371 497.465982 183.254697 485.683634 168.737052 485.683634L168.737052 485.683634zM931.84309 485.683634 352.935238 485.683634c-14.521738 0-26.318412 11.783371-26.318412 26.317389 0 14.531971 11.797697 26.313296 26.318412 26.313296l578.907852 0c14.516622 0 26.313296-11.783371 26.313296-26.313296C958.157409 497.465982 946.359712 485.683634 931.84309 485.683634L931.84309 485.683634zM168.737052 215.33637l-78.945003 0c-14.516622 0-26.313296 11.785417-26.313296 26.316366 0 14.528901 11.796674 26.312272 26.313296 26.312272l78.94398 0c14.517645 0 26.314319-11.782348 26.314319-26.312272C195.051371 227.120764 183.254697 215.33637 168.737052 215.33637L168.737052 215.33637zM352.935238 267.963984l578.907852 0c14.516622 0 26.313296-11.782348 26.313296-26.312272 0-14.530948-11.796674-26.316366-26.313296-26.316366L352.935238 215.335347c-14.521738 0-26.318412 11.785417-26.318412 26.316366C326.616826 256.18266 338.414523 267.963984 352.935238 267.963984L352.935238 267.963984z" fill="#ffffff"></path></g></g></svg>