<?xml version="1.0" encoding="utf-8"?>
<!-- Generator: Adobe Illustrator 21.0.0, SVG Export Plug-In . SVG Version: 6.00 Build 0)  -->
<svg version="1.1" id="图层_1" xmlns="http://www.w3.org/2000/svg" xmlns:xlink="http://www.w3.org/1999/xlink" x="0px" y="0px"
	 viewBox="0 0 200 200" style="enable-background:new 0 0 200 200;" xml:space="preserve">
<style type="text/css">
	.st0{fill:#FFFFFF;}
</style>
<path class="st0" d="M38.5,38.4c-33.9,33.9-33.9,89,0,122.9s89,33.9,122.9,0s33.9-89,0-122.9S72.3,4.5,38.5,38.4z M153.7,153.6
	c-29.6,29.6-77.9,29.6-107.5,0s-29.6-77.9,0-107.5s77.9-29.6,107.5,0S183.3,124,153.7,153.6z M119.1,72.9L99.9,92.2L80.7,72.9
	c-2.1-2.1-5.5-2.1-7.6,0c-2.1,2.1-2.1,5.5,0,7.6l19.2,19.2L73,119c-2.1,2.1-2.1,5.5,0,7.6s5.5,2.1,7.6,0l19.2-19.2l19.2,19.2
	c2.1,2.1,5.5,2.1,7.6,0c2.1-2.1,2.1-5.5,0-7.6l-19.2-19.2l19.2-19.2c2.1-2.1,2.1-5.5,0-7.6C124.6,70.8,121.3,70.8,119.1,72.9z"/>
</svg>
