<?xml version="1.0" encoding="utf-8"?>
<!-- Generator: Adobe Illustrator 21.0.0, SVG Export Plug-In . SVG Version: 6.00 Build 0)  -->
<svg version="1.1" id="图层_1" xmlns="http://www.w3.org/2000/svg" xmlns:xlink="http://www.w3.org/1999/xlink" x="0px" y="0px"
	 viewBox="0 0 200 200" style="enable-background:new 0 0 200 200;" xml:space="preserve">
<style type="text/css">
	.st0{fill:#FFFFFF;}
</style>
<path class="st0" d="M99.9,12.9C52,12.9,13,51.9,13,99.8c0,47.9,39,86.9,86.9,86.9c47.9,0,86.9-39,86.9-86.9
	C186.8,51.9,147.8,12.9,99.9,12.9z M99.9,175.9c-41.9,0-76-34.1-76-76c0-41.9,34.1-76,76-76c41.9,0,76,34.1,76,76
	C175.9,141.8,141.8,175.9,99.9,175.9z M132.5,94.4h-27.2V67.2c0-3-2.4-5.4-5.4-5.4c-3,0-5.4,2.4-5.4,5.4v27.2H67.3
	c-3,0-5.4,2.4-5.4,5.4c0,3,2.4,5.4,5.4,5.4h27.2v27.2c0,3,2.4,5.4,5.4,5.4c3,0,5.4-2.4,5.4-5.4v-27.2h27.2c3,0,5.4-2.4,5.4-5.4
	C137.9,96.8,135.5,94.4,132.5,94.4z"/>
</svg>
